<?xml version="1.0" encoding="UTF-8" standalone="no"?>
<!DOCTYPE svg PUBLIC "-//W3C//DTD SVG 1.1//EN" "http://www.w3.org/Graphics/SVG/1.1/DTD/svg11.dtd">
<svg version="1.1" xmlns="http://www.w3.org/2000/svg" xmlns:xlink="http://www.w3.org/1999/xlink" preserveAspectRatio="xMidYMid meet" viewBox="0 0 640 640" width="640" height="640"><defs><path d="M340 230C340 296.23 286.23 350 220 350C153.77 350 100 296.23 100 230C100 163.77 153.77 110 220 110C286.23 110 340 163.77 340 230Z" id="d4unhDG0uV"></path><clipPath id="clipbMbOCjQSQ"><use xlink:href="#d4unhDG0uV" opacity="1"></use></clipPath><path d="M202.5 260L237.5 260L237.5 537.62L202.5 537.62L202.5 260Z" id="d9Cu6LGgJ"></path><path d="M401.51 220L401.51 245L-488.72 244.96L-488.72 219.96L401.51 220Z" id="bbEeaIhcc"></path><path d="M217.5 80L227.5 80L227.5 204.56L217.5 204.56L217.5 80Z" id="aFqsnvDw"></path><path d="M397.63 376.43L376.43 397.63L-97.63 -76.43L-76.43 -97.63L397.63 376.43Z" id="a3duAmMSDU"></path><path d="M235 230C235 232.76 232.76 235 230 235C227.24 235 225 232.76 225 230C225 227.24 227.24 225 230 225C232.76 225 235 227.24 235 230Z" id="aiZ9i6g0Y"></path><path d="M468.81 -42.88L490 -21.69L-144.28 612.61L-165.47 591.42L468.81 -42.88Z" id="b8JUEkex8"></path><path d="M348 232C348 302.65 290.65 360 220 360C149.35 360 92 302.65 92 232C92 161.35 149.35 104 220 104C290.65 104 348 161.35 348 232Z" id="a7FV18QxsJ"></path></defs><g><g><g><use xlink:href="#d4unhDG0uV" opacity="1" fill="#607490" fill-opacity="0"></use><g clip-path="url(#clipbMbOCjQSQ)"><use xlink:href="#d4unhDG0uV" opacity="1" fill-opacity="0" stroke="#2f78a8" stroke-width="64" stroke-opacity="1"></use></g></g><g><use xlink:href="#d9Cu6LGgJ" opacity="1" fill="#00ff00" fill-opacity="1"></use></g><g><use xlink:href="#bbEeaIhcc" opacity="1" fill="#00ff00" fill-opacity="1"></use></g><g><use xlink:href="#aFqsnvDw" opacity="1" fill="#00ff00" fill-opacity="1"></use></g><g><use xlink:href="#a3duAmMSDU" opacity="1" fill="#00ff00" fill-opacity="1"></use></g><g><use xlink:href="#aiZ9i6g0Y" opacity="1" fill="#000000" fill-opacity="1"></use><g><use xlink:href="#aiZ9i6g0Y" opacity="1" fill-opacity="0" stroke="#ffffff" stroke-width="3" stroke-opacity="1"></use></g></g><g><use xlink:href="#b8JUEkex8" opacity="1" fill="#00ff00" fill-opacity="1"></use></g><g><g><use xlink:href="#a7FV18QxsJ" opacity="1" fill-opacity="0" stroke="#2f78a8" stroke-width="5" stroke-opacity="1"></use></g></g></g></g></svg>